<svg xmlns="http://www.w3.org/2000/svg" xmlns:xlink="http://www.w3.org/1999/xlink" width="280" zoomAndPan="magnify" viewBox="0 0 210 60" height="80" preserveAspectRatio="xMidYMid meet" version="1.0"><defs><g/><clipPath id="1c759a0ecd"><path d="M 13.78125 13.507812 L 50.160156 13.507812 L 50.160156 46.492188 L 13.78125 46.492188 Z M 13.78125 13.507812 " clip-rule="nonzero"/></clipPath><clipPath id="2b37b7e31c"><path d="M 9.660156 22.488281 L 38.398438 22.488281 L 38.398438 46.492188 L 9.660156 46.492188 Z M 9.660156 22.488281 " clip-rule="nonzero"/></clipPath><clipPath id="d96b7aecc0"><rect x="0" width="137" y="0" height="30"/></clipPath><clipPath id="5333df6419"><rect x="0" width="65" y="0" height="14"/></clipPath></defs><g clip-path="url(#1c759a0ecd)"><path fill="#b29a75" d="M 41.226562 35.984375 L 41.222656 35.984375 C 44.902344 33.9375 47.390625 30.011719 47.390625 25.5 C 47.390625 18.878906 42.019531 13.507812 35.394531 13.507812 L 13.804688 13.507812 L 16.675781 16.820312 C 18.152344 18.523438 20.296875 19.503906 22.554688 19.503906 L 35.394531 19.503906 C 38.707031 19.503906 41.394531 22.1875 41.394531 25.5 C 41.394531 28.8125 38.707031 31.5 35.394531 31.5 L 29.398438 31.5 L 34.597656 37.496094 L 40.070312 43.804688 C 41.546875 45.511719 43.691406 46.492188 45.949219 46.492188 L 50.332031 46.492188 L 41.226562 35.984375 " fill-opacity="1" fill-rule="nonzero"/></g><g clip-path="url(#2b37b7e31c)"><path fill="#b29a75" d="M 34.738281 28.5 L 31.863281 25.1875 C 30.386719 23.484375 28.242188 22.503906 25.984375 22.503906 L 9.660156 22.503906 L 28.125 43.804688 C 29.605469 45.511719 31.75 46.492188 34.007812 46.492188 L 38.390625 46.492188 L 22.792969 28.5 L 34.738281 28.5 " fill-opacity="1" fill-rule="nonzero"/></g><g transform="matrix(1, 0, 0, 1, 53, 12)"><g clip-path="url(#d96b7aecc0)"><g fill="#d9d9d9" fill-opacity="1"><g transform="translate(0.771114, 21.553247)"><g><path d="M 1.40625 -19.296875 L 8.296875 -19.296875 C 10.160156 -19.296875 11.675781 -18.800781 12.84375 -17.8125 C 14.007812 -16.820312 14.59375 -15.40625 14.59375 -13.5625 C 14.59375 -12.144531 14.238281 -10.957031 13.53125 -10 C 12.820312 -9.039062 11.859375 -8.363281 10.640625 -7.96875 L 17.28125 0 L 11.6875 0 L 5.796875 -7.625 L 5.796875 0 L 1.40625 0 Z M 5.796875 -10.734375 L 6.3125 -10.734375 C 6.71875 -10.734375 7.0625 -10.738281 7.34375 -10.75 C 7.625 -10.769531 7.941406 -10.828125 8.296875 -10.921875 C 8.660156 -11.015625 8.953125 -11.144531 9.171875 -11.3125 C 9.390625 -11.488281 9.578125 -11.738281 9.734375 -12.0625 C 9.890625 -12.394531 9.96875 -12.796875 9.96875 -13.265625 C 9.96875 -13.734375 9.890625 -14.128906 9.734375 -14.453125 C 9.578125 -14.785156 9.390625 -15.035156 9.171875 -15.203125 C 8.953125 -15.378906 8.660156 -15.507812 8.296875 -15.59375 C 7.941406 -15.6875 7.625 -15.738281 7.34375 -15.75 C 7.0625 -15.769531 6.71875 -15.78125 6.3125 -15.78125 L 5.796875 -15.78125 Z M 5.796875 -10.734375 "/></g></g></g><g fill="#d9d9d9" fill-opacity="1"><g transform="translate(18.983404, 21.553247)"><g><path d="M 5.796875 -19.296875 L 5.796875 0 L 1.40625 0 L 1.40625 -19.296875 Z M 5.796875 -19.296875 "/></g></g></g><g fill="#d9d9d9" fill-opacity="1"><g transform="translate(27.657328, 21.553247)"><g><path d="M 1.40625 -19.296875 L 7 -19.296875 C 9.675781 -19.296875 11.960938 -18.378906 13.859375 -16.546875 C 15.765625 -14.710938 16.71875 -12.414062 16.71875 -9.65625 C 16.71875 -6.882812 15.769531 -4.582031 13.875 -2.75 C 11.988281 -0.914062 9.695312 0 7 0 L 1.40625 0 Z M 5.796875 -3.921875 L 6.484375 -3.921875 C 8.085938 -3.921875 9.398438 -4.460938 10.421875 -5.546875 C 11.441406 -6.640625 11.957031 -8.003906 11.96875 -9.640625 C 11.96875 -11.273438 11.457031 -12.640625 10.4375 -13.734375 C 9.414062 -14.828125 8.097656 -15.375 6.484375 -15.375 L 5.796875 -15.375 Z M 5.796875 -3.921875 "/></g></g></g><g fill="#d9d9d9" fill-opacity="1"><g transform="translate(46.383942, 21.553247)"><g><path d="M 12.4375 -19.296875 L 12.4375 -15.4375 L 5.796875 -15.4375 L 5.796875 -11.609375 L 12.15625 -11.609375 L 12.15625 -7.75 L 5.796875 -7.75 L 5.796875 -3.859375 L 12.4375 -3.859375 L 12.4375 0 L 1.40625 0 L 1.40625 -19.296875 Z M 12.4375 -19.296875 "/></g></g></g><g fill="#d9d9d9" fill-opacity="1"><g transform="translate(61.416779, 21.553247)"><g><path d="M 11.671875 -3.96875 C 12.335938 -3.96875 12.988281 -4.066406 13.625 -4.265625 C 14.257812 -4.472656 14.722656 -4.671875 15.015625 -4.859375 L 15.46875 -5.171875 L 17.328125 -1.421875 C 17.265625 -1.378906 17.175781 -1.316406 17.0625 -1.234375 C 16.957031 -1.160156 16.707031 -1.015625 16.3125 -0.796875 C 15.914062 -0.585938 15.488281 -0.40625 15.03125 -0.25 C 14.582031 -0.09375 13.988281 0.0390625 13.25 0.15625 C 12.519531 0.28125 11.769531 0.34375 11 0.34375 C 9.195312 0.34375 7.492188 -0.09375 5.890625 -0.96875 C 4.285156 -1.851562 2.988281 -3.066406 2 -4.609375 C 1.019531 -6.148438 0.53125 -7.816406 0.53125 -9.609375 C 0.53125 -10.972656 0.816406 -12.273438 1.390625 -13.515625 C 1.972656 -14.765625 2.742188 -15.832031 3.703125 -16.71875 C 4.660156 -17.613281 5.78125 -18.320312 7.0625 -18.84375 C 8.34375 -19.375 9.65625 -19.640625 11 -19.640625 C 12.238281 -19.640625 13.382812 -19.492188 14.4375 -19.203125 C 15.488281 -18.910156 16.234375 -18.613281 16.671875 -18.3125 L 17.328125 -17.875 L 15.46875 -14.125 C 15.351562 -14.21875 15.1875 -14.332031 14.96875 -14.46875 C 14.75 -14.601562 14.3125 -14.78125 13.65625 -15 C 13 -15.21875 12.335938 -15.328125 11.671875 -15.328125 C 10.609375 -15.328125 9.65625 -15.15625 8.8125 -14.8125 C 7.976562 -14.46875 7.3125 -14.015625 6.8125 -13.453125 C 6.320312 -12.890625 5.945312 -12.285156 5.6875 -11.640625 C 5.4375 -10.992188 5.3125 -10.332031 5.3125 -9.65625 C 5.3125 -8.195312 5.859375 -6.882812 6.953125 -5.71875 C 8.054688 -4.550781 9.628906 -3.96875 11.671875 -3.96875 Z M 11.671875 -3.96875 "/></g></g></g><g fill="#d9d9d9" fill-opacity="1"><g transform="translate(80.494074, 21.553247)"><g><path d="M 0.53125 -9.65625 C 0.53125 -12.445312 1.484375 -14.804688 3.390625 -16.734375 C 5.296875 -18.671875 7.585938 -19.640625 10.265625 -19.640625 C 12.960938 -19.640625 15.253906 -18.675781 17.140625 -16.75 C 19.023438 -14.832031 19.96875 -12.46875 19.96875 -9.65625 C 19.96875 -6.832031 19.039062 -4.457031 17.1875 -2.53125 C 15.332031 -0.613281 13.023438 0.34375 10.265625 0.34375 C 7.441406 0.34375 5.113281 -0.609375 3.28125 -2.515625 C 1.445312 -4.421875 0.53125 -6.800781 0.53125 -9.65625 Z M 5.28125 -9.65625 C 5.28125 -8.644531 5.4375 -7.722656 5.75 -6.890625 C 6.0625 -6.054688 6.609375 -5.347656 7.390625 -4.765625 C 8.171875 -4.191406 9.128906 -3.90625 10.265625 -3.90625 C 11.898438 -3.90625 13.132812 -4.46875 13.96875 -5.59375 C 14.8125 -6.71875 15.234375 -8.070312 15.234375 -9.65625 C 15.234375 -11.226562 14.804688 -12.582031 13.953125 -13.71875 C 13.097656 -14.851562 11.867188 -15.421875 10.265625 -15.421875 C 8.671875 -15.421875 7.441406 -14.851562 6.578125 -13.71875 C 5.710938 -12.582031 5.28125 -11.226562 5.28125 -9.65625 Z M 5.28125 -9.65625 "/></g></g></g><g fill="#d9d9d9" fill-opacity="1"><g transform="translate(102.470285, 21.553247)"><g><path d="M 1.40625 -19.296875 L 8.296875 -19.296875 C 10.160156 -19.296875 11.675781 -18.800781 12.84375 -17.8125 C 14.007812 -16.820312 14.59375 -15.40625 14.59375 -13.5625 C 14.59375 -12.144531 14.238281 -10.957031 13.53125 -10 C 12.820312 -9.039062 11.859375 -8.363281 10.640625 -7.96875 L 17.28125 0 L 11.6875 0 L 5.796875 -7.625 L 5.796875 0 L 1.40625 0 Z M 5.796875 -10.734375 L 6.3125 -10.734375 C 6.71875 -10.734375 7.0625 -10.738281 7.34375 -10.75 C 7.625 -10.769531 7.941406 -10.828125 8.296875 -10.921875 C 8.660156 -11.015625 8.953125 -11.144531 9.171875 -11.3125 C 9.390625 -11.488281 9.578125 -11.738281 9.734375 -12.0625 C 9.890625 -12.394531 9.96875 -12.796875 9.96875 -13.265625 C 9.96875 -13.734375 9.890625 -14.128906 9.734375 -14.453125 C 9.578125 -14.785156 9.390625 -15.035156 9.171875 -15.203125 C 8.953125 -15.378906 8.660156 -15.507812 8.296875 -15.59375 C 7.941406 -15.6875 7.625 -15.738281 7.34375 -15.75 C 7.0625 -15.769531 6.71875 -15.78125 6.3125 -15.78125 L 5.796875 -15.78125 Z M 5.796875 -10.734375 "/></g></g></g><g fill="#d9d9d9" fill-opacity="1"><g transform="translate(120.682574, 21.553247)"><g><path d="M 12.4375 -19.296875 L 12.4375 -15.4375 L 5.796875 -15.4375 L 5.796875 -11.609375 L 12.15625 -11.609375 L 12.15625 -7.75 L 5.796875 -7.75 L 5.796875 -3.859375 L 12.4375 -3.859375 L 12.4375 0 L 1.40625 0 L 1.40625 -19.296875 Z M 12.4375 -19.296875 "/></g></g></g></g></g><g transform="matrix(1, 0, 0, 1, 126, 34)"><g clip-path="url(#5333df6419)"><g fill="#d9d9d9" fill-opacity="1"><g transform="translate(1.346306, 9.832148)"><g><path d="M 5.4375 -5.640625 L 3.4375 -5.640625 L 3.4375 0 L 2.109375 0 L 2.109375 -5.640625 L 0.109375 -5.640625 L 0.109375 -6.828125 L 5.4375 -6.828125 Z M 5.4375 -5.640625 "/></g></g></g><g fill="#d9d9d9" fill-opacity="1"><g transform="translate(11.870011, 9.832148)"><g><path d="M 0.578125 -6.75 C 0.734375 -6.78125 0.894531 -6.804688 1.0625 -6.828125 C 1.238281 -6.847656 1.410156 -6.863281 1.578125 -6.875 C 1.753906 -6.894531 1.921875 -6.90625 2.078125 -6.90625 C 2.242188 -6.914062 2.394531 -6.921875 2.53125 -6.921875 C 2.851562 -6.921875 3.164062 -6.890625 3.46875 -6.828125 C 3.78125 -6.773438 4.054688 -6.675781 4.296875 -6.53125 C 4.546875 -6.382812 4.742188 -6.1875 4.890625 -5.9375 C 5.035156 -5.6875 5.109375 -5.375 5.109375 -5 C 5.109375 -4.4375 4.976562 -3.976562 4.71875 -3.625 C 4.457031 -3.28125 4.109375 -3.039062 3.671875 -2.90625 L 4.15625 -2.609375 L 5.71875 0 L 4.171875 0 L 2.625 -2.671875 L 1.921875 -2.796875 L 1.921875 0 L 0.578125 0 Z M 2.625 -5.734375 C 2.488281 -5.734375 2.351562 -5.726562 2.21875 -5.71875 C 2.09375 -5.71875 1.992188 -5.707031 1.921875 -5.6875 L 1.921875 -3.703125 L 2.484375 -3.703125 C 2.859375 -3.703125 3.15625 -3.785156 3.375 -3.953125 C 3.59375 -4.128906 3.703125 -4.410156 3.703125 -4.796875 C 3.703125 -5.085938 3.609375 -5.316406 3.421875 -5.484375 C 3.242188 -5.648438 2.976562 -5.734375 2.625 -5.734375 Z M 2.625 -5.734375 "/></g></g></g><g fill="#d9d9d9" fill-opacity="1"><g transform="translate(22.725167, 9.832148)"><g><path d="M 3.953125 -1.515625 L 1.859375 -1.515625 L 1.328125 0 L 0 0 L 2.453125 -6.875 L 3.4375 -6.875 L 5.90625 0 L 4.5 0 Z M 2.1875 -2.578125 L 3.65625 -2.578125 L 3.15625 -4.109375 L 2.9375 -5.171875 L 2.890625 -5.171875 L 2.6875 -4.09375 Z M 2.1875 -2.578125 "/></g></g></g><g fill="#d9d9d9" fill-opacity="1"><g transform="translate(33.609566, 9.832148)"><g><path d="M 2.828125 -2.8125 L 3 -1.65625 L 3.046875 -1.65625 L 3.25 -2.828125 L 4.546875 -6.828125 L 5.953125 -6.828125 L 3.421875 0.046875 L 2.46875 0.046875 L -0.09375 -6.828125 L 1.46875 -6.828125 Z M 2.828125 -2.8125 "/></g></g></g><g fill="#d9d9d9" fill-opacity="1"><g transform="translate(44.464721, 9.832148)"><g><path d="M 0.578125 -6.828125 L 4.625 -6.828125 L 4.625 -5.640625 L 1.921875 -5.640625 L 1.921875 -4.046875 L 4.390625 -4.046875 L 4.390625 -2.859375 L 1.921875 -2.859375 L 1.921875 -1.1875 L 4.6875 -1.1875 L 4.6875 0 L 0.578125 0 Z M 0.578125 -6.828125 "/></g></g></g><g fill="#d9d9d9" fill-opacity="1"><g transform="translate(54.540003, 9.832148)"><g><path d="M 4.90625 0 L 0.578125 0 L 0.578125 -6.828125 L 1.921875 -6.828125 L 1.921875 -1.1875 L 4.90625 -1.1875 Z M 4.90625 0 "/></g></g></g></g></g></svg>